STARTFONT 2.1
FONT -Fondu--Medium-R-Normal--30-290-75-75-P-138-MacRoman-1
SIZE 29 75 75
FONTBOUNDINGBOX 19 30 -1 -6
COMMENT Created by Fondu from a mac NFNT/FONT resource
STARTPROPERTIES 17
FOUNDRY "Fondu"
FAMILY_NAME ""
WEIGHT_NAME "Medium"
SLANT "R"
SETWIDTH_NAME "Normal"
ADD_STYLE_NAME ""
PIXEL_SIZE 30
POINT_SIZE 290
RESOLUTION_X 75
RESOLUTION_Y 75
SPACING "P"
AVERAGE_WIDTH 138
CHARSET_REGISTRY "MacRoman"
CHARSET_ENCODING "1"
FONT_ASCENT 24
FONT_DESCENT 6
FACE_NAME "nameless"
ENDPROPERTIES
CHARS 228
STARTCHAR eth
ENCODING 2
SWIDTH 0 0
DWIDTH 0 0
BBX 0 0 -1 -6
BITMAP
ENDCHAR
STARTCHAR Lslash
ENCODING 3
SWIDTH 0 0
DWIDTH 0 0
BBX 0 0 -1 -6
BITMAP
ENDCHAR
STARTCHAR lslash
ENCODING 4
SWIDTH 0 0
DWIDTH 0 0
BBX 0 0 -1 -6
BITMAP
ENDCHAR
STARTCHAR Scaron
ENCODING 5
SWIDTH 0 0
DWIDTH 0 0
BBX 0 0 -1 -6
BITMAP
ENDCHAR
STARTCHAR space
ENCODING 32
SWIDTH 266 0
DWIDTH 8 0
BBX 0 0 -1 -6
BITMAP
ENDCHAR
STARTCHAR exclam
ENCODING 33
SWIDTH 200 0
DWIDTH 6 0
BBX 1 18 3 0
BITMAP
80
80
80
80
80
80
80
80
80
80
80
80
80
80
00
00
80
80
ENDCHAR
STARTCHAR quotedbl
ENCODING 34
SWIDTH 333 0
DWIDTH 10 0
BBX 5 4 2 14
BITMAP
88
88
88
88
ENDCHAR
STARTCHAR numbersign
ENCODING 35
SWIDTH 600 0
DWIDTH 18 0
BBX 14 10 2 8
BITMAP
0220
0220
3FFC
0440
0440
0880
0880
FFF0
1100
1100
ENDCHAR
STARTCHAR dollar
ENCODING 36
SWIDTH 466 0
DWIDTH 14 0
BBX 9 22 2 -2
BITMAP
0800
0800
3E00
4900
8880
8880
8800
4800
2800
1800
0C00
0A00
0900
0880
0880
0880
8880
8880
4900
3E00
0800
0800
ENDCHAR
STARTCHAR percent
ENCODING 37
SWIDTH 600 0
DWIDTH 18 0
BBX 14 18 2 0
BITMAP
3004
4804
8408
8408
8410
8420
4840
3080
0100
0200
0430
0848
1084
2084
2084
4084
4048
4030
ENDCHAR
STARTCHAR ampersand
ENCODING 38
SWIDTH 600 0
DWIDTH 18 0
BBX 15 18 2 0
BITMAP
0E00
1100
2080
2080
2100
2200
1400
0800
1400
2200
4104
4088
8050
8020
8050
4088
2104
1E02
ENDCHAR
STARTCHAR quotesingle
ENCODING 39
SWIDTH 200 0
DWIDTH 6 0
BBX 1 4 2 14
BITMAP
80
80
80
80
ENDCHAR
STARTCHAR parenleft
ENCODING 40
SWIDTH 333 0
DWIDTH 10 0
BBX 5 20 2 -1
BITMAP
08
10
20
20
40
40
80
80
80
80
80
80
80
80
40
40
20
20
10
08
ENDCHAR
STARTCHAR parenright
ENCODING 41
SWIDTH 333 0
DWIDTH 10 0
BBX 5 20 3 -1
BITMAP
80
40
20
20
10
10
08
08
08
08
08
08
08
08
10
10
20
20
40
80
ENDCHAR
STARTCHAR asterisk
ENCODING 42
SWIDTH 533 0
DWIDTH 16 0
BBX 14 11 1 4
BITMAP
2010
1020
0840
0480
0300
FFFC
0300
0480
0840
1020
2010
ENDCHAR
STARTCHAR plus
ENCODING 43
SWIDTH 466 0
DWIDTH 14 0
BBX 9 9 2 5
BITMAP
0800
0800
0800
0800
FF80
0800
0800
0800
0800
ENDCHAR
STARTCHAR comma
ENCODING 44
SWIDTH 266 0
DWIDTH 8 0
BBX 3 6 2 -4
BITMAP
60
20
20
20
40
80
ENDCHAR
STARTCHAR hyphen
ENCODING 45
SWIDTH 466 0
DWIDTH 14 0
BBX 10 1 2 9
BITMAP
FFC0
ENDCHAR
STARTCHAR period
ENCODING 46
SWIDTH 200 0
DWIDTH 6 0
BBX 1 2 2 0
BITMAP
80
80
ENDCHAR
STARTCHAR slash
ENCODING 47
SWIDTH 466 0
DWIDTH 14 0
BBX 9 18 2 0
BITMAP
0080
0080
0100
0100
0200
0200
0400
0400
0800
0800
1000
1000
2000
2000
4000
4000
8000
8000
ENDCHAR
STARTCHAR zero
ENCODING 48
SWIDTH 533 0
DWIDTH 16 0
BBX 12 18 2 0
BITMAP
0F00
1080
2040
4020
4020
8010
8010
8010
8010
8010
8010
8010
8010
4020
4020
2040
1080
0F00
ENDCHAR
STARTCHAR one
ENCODING 49
SWIDTH 533 0
DWIDTH 16 0
BBX 3 18 6 0
BITMAP
20
60
A0
20
20
20
20
20
20
20
20
20
20
20
20
20
20
20
ENDCHAR
STARTCHAR two
ENCODING 50
SWIDTH 533 0
DWIDTH 16 0
BBX 12 18 2 0
BITMAP
0F80
3040
4020
8010
8010
0010
0010
0020
0040
0080
0100
0200
0400
0800
1000
2000
4000
FFF0
ENDCHAR
STARTCHAR three
ENCODING 51
SWIDTH 533 0
DWIDTH 16 0
BBX 12 18 2 0
BITMAP
FFF0
0020
0040
0080
0100
0200
0700
00C0
0020
0020
0010
0010
0010
0010
8020
8020
60C0
1F00
ENDCHAR
STARTCHAR four
ENCODING 52
SWIDTH 533 0
DWIDTH 16 0
BBX 14 18 2 0
BITMAP
0010
0030
0050
0090
0110
0210
0410
0810
1010
2010
4010
8010
FFFC
0010
0010
0010
0010
0010
ENDCHAR
STARTCHAR five
ENCODING 53
SWIDTH 533 0
DWIDTH 16 0
BBX 12 18 2 0
BITMAP
FFE0
8000
8000
8000
8000
8000
FF00
00C0
0020
0020
0010
0010
0010
0010
0020
8020
60C0
1F00
ENDCHAR
STARTCHAR six
ENCODING 54
SWIDTH 533 0
DWIDTH 16 0
BBX 12 18 2 0
BITMAP
07C0
1800
2000
4000
4000
8000
8F00
B0C0
C020
8020
8010
8010
8010
8010
4020
4020
30C0
0F00
ENDCHAR
STARTCHAR seven
ENCODING 55
SWIDTH 533 0
DWIDTH 16 0
BBX 12 18 2 0
BITMAP
FFF0
0010
0010
0020
0020
0040
0040
0080
0080
0100
0100
0200
0200
0400
0400
0800
0800
0800
ENDCHAR
STARTCHAR eight
ENCODING 56
SWIDTH 533 0
DWIDTH 16 0
BBX 12 18 2 0
BITMAP
1F80
2040
4020
4020
4020
4020
2040
1F80
2040
4020
4020
8010
8010
8010
4020
4020
30C0
0F00
ENDCHAR
STARTCHAR nine
ENCODING 57
SWIDTH 533 0
DWIDTH 16 0
BBX 12 18 2 0
BITMAP
0F00
30C0
4020
4020
8010
8010
8010
8010
4010
4030
30D0
0F10
0010
0020
0020
0040
0180
1E00
ENDCHAR
STARTCHAR colon
ENCODING 58
SWIDTH 200 0
DWIDTH 6 0
BBX 1 12 2 0
BITMAP
80
80
00
00
00
00
00
00
00
00
80
80
ENDCHAR
STARTCHAR semicolon
ENCODING 59
SWIDTH 266 0
DWIDTH 8 0
BBX 3 16 2 -4
BITMAP
20
20
00
00
00
00
00
00
00
00
60
20
20
20
40
80
ENDCHAR
STARTCHAR less
ENCODING 60
SWIDTH 400 0
DWIDTH 12 0
BBX 7 13 3 2
BITMAP
02
04
08
10
20
40
80
40
20
10
08
04
02
ENDCHAR
STARTCHAR equal
ENCODING 61
SWIDTH 466 0
DWIDTH 14 0
BBX 10 5 2 7
BITMAP
FFC0
0000
0000
0000
FFC0
ENDCHAR
STARTCHAR greater
ENCODING 62
SWIDTH 400 0
DWIDTH 12 0
BBX 7 13 2 2
BITMAP
80
40
20
10
08
04
02
04
08
10
20
40
80
ENDCHAR
STARTCHAR question
ENCODING 63
SWIDTH 533 0
DWIDTH 16 0
BBX 11 18 3 0
BITMAP
1F80
2040
4020
8020
8020
0020
0040
0080
0100
0200
0200
0400
0400
0400
0000
0000
0400
0400
ENDCHAR
STARTCHAR at
ENCODING 64
SWIDTH 666 0
DWIDTH 20 0
BBX 15 16 3 0
BITMAP
07C0
1830
2008
4004
43C4
8422
8822
8822
8822
8822
8464
4398
4000
2000
1800
07C0
ENDCHAR
STARTCHAR A
ENCODING 65
SWIDTH 600 0
DWIDTH 18 0
BBX 15 18 2 0
BITMAP
0100
0100
0100
0280
0280
0440
0440
0820
0820
1010
1010
3FF8
2008
2008
4004
4004
8002
8002
ENDCHAR
STARTCHAR B
ENCODING 66
SWIDTH 533 0
DWIDTH 16 0
BBX 12 18 2 0
BITMAP
FF80
8040
8020
8020
8020
8020
8040
FF80
8040
8020
8010
8010
8010
8010
8010
8020
8040
FF80
ENDCHAR
STARTCHAR C
ENCODING 67
SWIDTH 533 0
DWIDTH 16 0
BBX 12 18 2 0
BITMAP
0FC0
3020
4010
4000
8000
8000
8000
8000
8000
8000
8000
8000
8000
8000
4000
4010
3020
0FC0
ENDCHAR
STARTCHAR D
ENCODING 68
SWIDTH 533 0
DWIDTH 16 0
BBX 12 18 2 0
BITMAP
FE00
8180
8040
8020
8020
8010
8010
8010
8010
8010
8010
8010
8010
8020
8020
8040
8180
FE00
ENDCHAR
STARTCHAR E
ENCODING 69
SWIDTH 466 0
DWIDTH 14 0
BBX 10 18 2 0
BITMAP
FFC0
8000
8000
8000
8000
8000
8000
8000
FF00
8000
8000
8000
8000
8000
8000
8000
8000
FFC0
ENDCHAR
STARTCHAR F
ENCODING 70
SWIDTH 466 0
DWIDTH 14 0
BBX 10 18 2 0
BITMAP
FFC0
8000
8000
8000
8000
8000
8000
8000
FF00
8000
8000
8000
8000
8000
8000
8000
8000
8000
ENDCHAR
STARTCHAR G
ENCODING 71
SWIDTH 533 0
DWIDTH 16 0
BBX 12 18 2 0
BITMAP
0F80
3040
4020
4000
8000
8000
8000
8000
83F0
8010
8010
8010
8010
8010
4020
4020
30C0
0F00
ENDCHAR
STARTCHAR H
ENCODING 72
SWIDTH 533 0
DWIDTH 16 0
BBX 12 18 2 0
BITMAP
8010
8010
8010
8010
8010
8010
8010
8010
FFF0
8010
8010
8010
8010
8010
8010
8010
8010
8010
ENDCHAR
STARTCHAR I
ENCODING 73
SWIDTH 333 0
DWIDTH 10 0
BBX 1 18 4 0
BITMAP
80
80
80
80
80
80
80
80
80
80
80
80
80
80
80
80
80
80
ENDCHAR
STARTCHAR J
ENCODING 74
SWIDTH 466 0
DWIDTH 14 0
BBX 12 18 0 0
BITMAP
0010
0010
0010
0010
0010
0010
0010
0010
0010
0010
0010
0010
8010
8010
8020
4020
30C0
0F00
ENDCHAR
STARTCHAR K
ENCODING 75
SWIDTH 533 0
DWIDTH 16 0
BBX 13 18 2 0
BITMAP
8010
8020
8040
8080
8100
8200
8400
8800
9000
A800
C400
8200
8100
8080
8040
8020
8010
8008
ENDCHAR
STARTCHAR L
ENCODING 76
SWIDTH 466 0
DWIDTH 14 0
BBX 10 18 2 0
BITMAP
8000
8000
8000
8000
8000
8000
8000
8000
8000
8000
8000
8000
8000
8000
8000
8000
8000
FFC0
ENDCHAR
STARTCHAR M
ENCODING 77
SWIDTH 600 0
DWIDTH 18 0
BBX 15 18 1 0
BITMAP
8002
C006
A00A
9012
8822
8442
8282
8102
8002
8002
8002
8002
8002
8002
8002
8002
8002
8002
ENDCHAR
STARTCHAR N
ENCODING 78
SWIDTH 533 0
DWIDTH 16 0
BBX 12 18 2 0
BITMAP
8010
C010
C010
A010
A010
9010
8810
8810
8410
8210
8210
8110
8090
8090
8050
8030
8030
8010
ENDCHAR
STARTCHAR O
ENCODING 79
SWIDTH 533 0
DWIDTH 16 0
BBX 13 18 1 0
BITMAP
0700
18C0
2020
4010
4010
8008
8008
8008
8008
8008
8008
8008
8008
4010
4010
2020
18C0
0700
ENDCHAR
STARTCHAR P
ENCODING 80
SWIDTH 533 0
DWIDTH 16 0
BBX 11 18 3 0
BITMAP
FE00
8180
8040
8040
8020
8020
8020
8020
8040
8040
8180
FE00
8000
8000
8000
8000
8000
8000
ENDCHAR
STARTCHAR Q
ENCODING 81
SWIDTH 533 0
DWIDTH 16 0
BBX 13 18 1 0
BITMAP
0700
18C0
2020
4010
4010
8008
8008
8008
8008
8008
8008
8008
8008
4090
4050
2020
18D0
0708
ENDCHAR
STARTCHAR R
ENCODING 82
SWIDTH 533 0
DWIDTH 16 0
BBX 12 18 2 0
BITMAP
FF00
80C0
8020
8020
8010
8010
8010
8020
8020
80C0
FF80
8080
8040
8040
8020
8020
8010
8010
ENDCHAR
STARTCHAR S
ENCODING 83
SWIDTH 533 0
DWIDTH 16 0
BBX 12 18 2 0
BITMAP
3F80
4040
8020
8000
8000
8000
6000
1F00
00C0
0020
0020
0010
0010
0010
8020
8020
60C0
1F00
ENDCHAR
STARTCHAR T
ENCODING 84
SWIDTH 533 0
DWIDTH 16 0
BBX 13 18 1 0
BITMAP
FFF8
0200
0200
0200
0200
0200
0200
0200
0200
0200
0200
0200
0200
0200
0200
0200
0200
0200
ENDCHAR
STARTCHAR U
ENCODING 85
SWIDTH 533 0
DWIDTH 16 0
BBX 12 18 2 0
BITMAP
8010
8010
8010
8010
8010
8010
8010
8010
8010
8010
8010
8010
8010
8010
4020
4020
30C0
0F00
ENDCHAR
STARTCHAR V
ENCODING 86
SWIDTH 600 0
DWIDTH 18 0
BBX 13 18 3 0
BITMAP
8008
8008
4010
4010
4010
2020
2020
2020
1040
1040
1040
0880
0880
0880
0500
0500
0200
0200
ENDCHAR
STARTCHAR W
ENCODING 87
SWIDTH 733 0
DWIDTH 22 0
BBX 19 18 2 0
BITMAP
800020
800020
800020
404040
404040
404040
20A080
20A080
20A080
111100
111100
111100
0A0A00
0A0A00
0A0A00
040400
040400
040400
ENDCHAR
STARTCHAR X
ENCODING 88
SWIDTH 466 0
DWIDTH 14 0
BBX 11 18 1 0
BITMAP
8020
8020
4040
4040
2080
1100
1100
0A00
0400
0400
0A00
1100
1100
2080
4040
4040
8020
8020
ENDCHAR
STARTCHAR Y
ENCODING 89
SWIDTH 466 0
DWIDTH 14 0
BBX 11 18 1 0
BITMAP
8020
8020
4040
4040
2080
2080
1100
1100
0A00
0A00
0400
0400
0400
0400
0400
0400
0400
0400
ENDCHAR
STARTCHAR Z
ENCODING 90
SWIDTH 466 0
DWIDTH 14 0
BBX 10 18 2 0
BITMAP
FFC0
0040
0080
0080
0100
0200
0200
0400
0400
0800
0800
1000
2000
2000
4000
4000
8000
FFC0
ENDCHAR
STARTCHAR bracketleft
ENCODING 91
SWIDTH 266 0
DWIDTH 8 0
BBX 4 22 2 -2
BITMAP
F0
80
80
80
80
80
80
80
80
80
80
80
80
80
80
80
80
80
80
80
80
F0
ENDCHAR
STARTCHAR backslash
ENCODING 92
SWIDTH 466 0
DWIDTH 14 0
BBX 10 20 2 0
BITMAP
8000
8000
4000
4000
2000
2000
1000
1000
0800
0800
0400
0400
0200
0200
0100
0100
0080
0080
0040
0040
ENDCHAR
STARTCHAR bracketright
ENCODING 93
SWIDTH 266 0
DWIDTH 8 0
BBX 4 22 2 -2
BITMAP
F0
10
10
10
10
10
10
10
10
10
10
10
10
10
10
10
10
10
10
10
10
F0
ENDCHAR
STARTCHAR asciicircum
ENCODING 94
SWIDTH 266 0
DWIDTH 8 0
BBX 6 3 1 15
BITMAP
30
48
84
ENDCHAR
STARTCHAR underscore
ENCODING 95
SWIDTH 533 0
DWIDTH 16 0
BBX 16 1 0 0
BITMAP
FFFF
ENDCHAR
STARTCHAR grave
ENCODING 96
SWIDTH 266 0
DWIDTH 8 0
BBX 4 4 2 14
BITMAP
80
40
20
10
ENDCHAR
STARTCHAR a
ENCODING 97
SWIDTH 466 0
DWIDTH 14 0
BBX 10 14 2 0
BITMAP
1F00
6080
8040
0040
00C0
0340
0C40
3040
4040
8040
8040
80C0
4340
3C40
ENDCHAR
STARTCHAR b
ENCODING 98
SWIDTH 466 0
DWIDTH 14 0
BBX 10 18 2 0
BITMAP
8000
8000
8000
8000
9E00
A100
C080
8080
8040
8040
8040
8040
8040
8040
8080
C080
A100
9E00
ENDCHAR
STARTCHAR c
ENCODING 99
SWIDTH 466 0
DWIDTH 14 0
BBX 10 14 2 0
BITMAP
1F00
2080
4040
4000
8000
8000
8000
8000
8000
8000
4000
4040
2080
1F00
ENDCHAR
STARTCHAR d
ENCODING 100
SWIDTH 466 0
DWIDTH 14 0
BBX 10 18 2 0
BITMAP
0040
0040
0040
0040
1E40
2140
40C0
4040
8040
8040
8040
8040
8040
8040
4040
40C0
2140
1E40
ENDCHAR
STARTCHAR e
ENCODING 101
SWIDTH 466 0
DWIDTH 14 0
BBX 10 14 2 0
BITMAP
1E00
2100
4080
4080
8040
8040
FFC0
8000
8000
8000
4000
4080
2100
1E00
ENDCHAR
STARTCHAR f
ENCODING 102
SWIDTH 400 0
DWIDTH 12 0
BBX 8 18 2 0
BITMAP
0E
11
20
20
FC
20
20
20
20
20
20
20
20
20
20
20
20
20
ENDCHAR
STARTCHAR g
ENCODING 103
SWIDTH 466 0
DWIDTH 14 0
BBX 10 20 2 -6
BITMAP
1E40
2140
40C0
4040
8040
8040
8040
8040
8040
8040
4040
40C0
2140
1E40
0040
0040
0040
4080
2100
1E00
ENDCHAR
STARTCHAR h
ENCODING 104
SWIDTH 466 0
DWIDTH 14 0
BBX 10 18 2 0
BITMAP
8000
8000
8000
8000
9E00
A100
C080
8080
8040
8040
8040
8040
8040
8040
8040
8040
8040
8040
ENDCHAR
STARTCHAR i
ENCODING 105
SWIDTH 333 0
DWIDTH 10 0
BBX 3 18 3 0
BITMAP
20
20
00
00
E0
20
20
20
20
20
20
20
20
20
20
20
20
20
ENDCHAR
STARTCHAR j
ENCODING 106
SWIDTH 400 0
DWIDTH 12 0
BBX 6 24 2 -6
BITMAP
04
04
00
00
1C
04
04
04
04
04
04
04
04
04
04
04
04
04
04
04
04
04
88
70
ENDCHAR
STARTCHAR k
ENCODING 107
SWIDTH 466 0
DWIDTH 14 0
BBX 10 18 2 0
BITMAP
8000
8000
8000
8000
8080
8100
8200
8400
8800
9000
E000
9000
8800
8400
8200
8100
8080
8040
ENDCHAR
STARTCHAR l
ENCODING 108
SWIDTH 333 0
DWIDTH 10 0
BBX 3 18 3 0
BITMAP
E0
20
20
20
20
20
20
20
20
20
20
20
20
20
20
20
20
20
ENDCHAR
STARTCHAR m
ENCODING 109
SWIDTH 733 0
DWIDTH 22 0
BBX 17 14 2 0
BITMAP
9C1E00
A22100
C14080
808080
808080
808080
808080
808080
808080
808080
808080
808080
808080
808080
ENDCHAR
STARTCHAR n
ENCODING 110
SWIDTH 466 0
DWIDTH 14 0
BBX 10 14 2 0
BITMAP
9E00
A100
C080
8080
8040
8040
8040
8040
8040
8040
8040
8040
8040
8040
ENDCHAR
STARTCHAR o
ENCODING 111
SWIDTH 466 0
DWIDTH 14 0
BBX 10 14 2 0
BITMAP
1E00
2100
4080
4080
8040
8040
8040
8040
8040
8040
4080
4080
2100
1E00
ENDCHAR
STARTCHAR p
ENCODING 112
SWIDTH 466 0
DWIDTH 14 0
BBX 10 18 2 -4
BITMAP
9E00
A100
C080
8080
8040
8040
8040
8040
8040
8040
8080
C080
A100
9E00
8000
8000
8000
8000
ENDCHAR
STARTCHAR q
ENCODING 113
SWIDTH 466 0
DWIDTH 14 0
BBX 10 18 2 -4
BITMAP
1E40
2140
40C0
4040
8040
8040
8040
8040
8040
8040
4040
40C0
2140
1E40
0040
0040
0040
0040
ENDCHAR
STARTCHAR r
ENCODING 114
SWIDTH 400 0
DWIDTH 12 0
BBX 9 14 2 0
BITMAP
9E00
A100
C080
8000
8000
8000
8000
8000
8000
8000
8000
8000
8000
8000
ENDCHAR
STARTCHAR s
ENCODING 115
SWIDTH 466 0
DWIDTH 14 0
BBX 10 14 2 0
BITMAP
3F00
4080
8040
8000
8000
4000
3F00
0080
0040
0040
0040
8040
4080
3F00
ENDCHAR
STARTCHAR t
ENCODING 116
SWIDTH 400 0
DWIDTH 12 0
BBX 8 18 2 0
BITMAP
20
20
20
20
FE
20
20
20
20
20
20
20
20
20
20
20
11
0E
ENDCHAR
STARTCHAR u
ENCODING 117
SWIDTH 466 0
DWIDTH 14 0
BBX 10 14 2 0
BITMAP
8040
8040
8040
8040
8040
8040
8040
8040
8040
8040
4040
40C0
2140
1E40
ENDCHAR
STARTCHAR v
ENCODING 118
SWIDTH 466 0
DWIDTH 14 0
BBX 11 14 1 0
BITMAP
8020
8020
4040
4040
4040
2080
2080
1100
1100
1100
0A00
0A00
0400
0400
ENDCHAR
STARTCHAR w
ENCODING 119
SWIDTH 733 0
DWIDTH 22 0
BBX 17 14 2 0
BITMAP
808080
808080
808080
414100
414100
414100
222200
222200
222200
141400
141400
141400
080800
080800
ENDCHAR
STARTCHAR x
ENCODING 120
SWIDTH 466 0
DWIDTH 14 0
BBX 10 14 2 0
BITMAP
8040
8040
4080
2100
2100
1200
0C00
0C00
1200
2100
2100
4080
8040
8040
ENDCHAR
STARTCHAR y
ENCODING 121
SWIDTH 466 0
DWIDTH 14 0
BBX 11 20 1 -6
BITMAP
8020
8020
4040
4040
4040
2080
2080
1100
1100
1100
0A00
0A00
0400
0400
0800
0800
1000
1000
2000
2000
ENDCHAR
STARTCHAR z
ENCODING 122
SWIDTH 466 0
DWIDTH 14 0
BBX 10 14 2 0
BITMAP
FFC0
0040
0080
0100
0200
0200
0400
0800
1000
1000
2000
4000
8000
FFC0
ENDCHAR
STARTCHAR braceleft
ENCODING 123
SWIDTH 333 0
DWIDTH 10 0
BBX 5 22 3 -2
BITMAP
18
20
40
40
40
40
40
40
40
40
80
40
40
40
40
40
40
40
40
40
20
18
ENDCHAR
STARTCHAR bar
ENCODING 124
SWIDTH 200 0
DWIDTH 6 0
BBX 1 22 2 -2
BITMAP
80
80
80
80
80
80
80
80
80
80
80
80
80
80
80
80
80
80
80
80
80
80
ENDCHAR
STARTCHAR braceright
ENCODING 125
SWIDTH 333 0
DWIDTH 10 0
BBX 5 22 2 -2
BITMAP
C0
20
10
10
10
10
10
10
10
10
08
10
10
10
10
10
10
10
10
10
20
C0
ENDCHAR
STARTCHAR asciitilde
ENCODING 126
SWIDTH 533 0
DWIDTH 16 0
BBX 12 3 2 15
BITMAP
3810
4420
83C0
ENDCHAR
STARTCHAR char007f
ENCODING 127
SWIDTH 0 0
DWIDTH 0 0
BBX 0 0 -1 -6
BITMAP
ENDCHAR
STARTCHAR Adieresis
ENCODING 128
SWIDTH 600 0
DWIDTH 18 0
BBX 15 23 2 0
BITMAP
0820
0820
0820
0000
0000
0100
0100
0100
0280
0280
0440
0440
0820
0820
1010
1010
3FF8
2008
2008
4004
4004
8002
8002
ENDCHAR
STARTCHAR Aring
ENCODING 129
SWIDTH 600 0
DWIDTH 18 0
BBX 15 22 2 0
BITMAP
3FF8
0000
0000
0000
0100
0100
0100
0280
0280
0440
0440
0820
0820
1010
1010
3FF8
2008
2008
4004
4004
8002
8002
ENDCHAR
STARTCHAR Ccedilla
ENCODING 130
SWIDTH 466 0
DWIDTH 14 0
BBX 10 18 2 0
BITMAP
FFC0
0000
0000
0000
1F00
6080
8040
0040
00C0
0340
0C40
3040
4040
8040
8040
80C0
4340
3C40
ENDCHAR
STARTCHAR Eacute
ENCODING 131
SWIDTH 466 0
DWIDTH 14 0
BBX 10 24 2 0
BITMAP
0200
0400
0800
1000
0000
0000
FFC0
8000
8000
8000
8000
8000
8000
8000
FF00
8000
8000
8000
8000
8000
8000
8000
8000
FFC0
ENDCHAR
STARTCHAR Ntilde
ENCODING 132
SWIDTH 600 0
DWIDTH 18 0
BBX 15 23 2 -5
BITMAP
0100
0100
0100
0280
0280
0440
0440
0820
0820
1010
1010
3FF8
2008
2008
4004
4004
8002
8002
0002
0004
0008
0008
0006
ENDCHAR
STARTCHAR Odieresis
ENCODING 133
SWIDTH 533 0
DWIDTH 16 0
BBX 13 23 1 0
BITMAP
1040
1040
1040
0000
0000
0700
18C0
2020
4010
4010
8008
8008
8008
8008
8008
8008
8008
8008
4010
4010
2020
18C0
0700
ENDCHAR
STARTCHAR Udieresis
ENCODING 134
SWIDTH 533 0
DWIDTH 16 0
BBX 12 23 2 0
BITMAP
2040
2040
2040
0000
0000
8010
8010
8010
8010
8010
8010
8010
8010
8010
8010
8010
8010
8010
8010
4020
4020
30C0
0F00
ENDCHAR
STARTCHAR aacute
ENCODING 135
SWIDTH 466 0
DWIDTH 14 0
BBX 10 20 2 0
BITMAP
0100
0200
0400
0800
0000
0000
1F00
6080
8040
0040
00C0
0340
0C40
3040
4040
8040
8040
80C0
4340
3C40
ENDCHAR
STARTCHAR agrave
ENCODING 136
SWIDTH 466 0
DWIDTH 14 0
BBX 10 19 2 -5
BITMAP
1F00
6080
8040
0040
00C0
0340
0C40
3040
4040
8040
8040
80C0
4340
3C40
0040
0080
0100
0100
00C0
ENDCHAR
STARTCHAR acircumflex
ENCODING 137
SWIDTH 533 0
DWIDTH 16 0
BBX 12 24 2 0
BITMAP
1040
0880
0500
0200
0000
0000
0FC0
3020
4010
4000
8000
8000
8000
8000
8000
8000
8000
8000
8000
8000
4000
4010
3020
0FC0
ENDCHAR
STARTCHAR adieresis
ENCODING 138
SWIDTH 466 0
DWIDTH 14 0
BBX 10 19 2 0
BITMAP
2080
2080
2080
0000
0000
1F00
6080
8040
0040
00C0
0340
0C40
3040
4040
8040
8040
80C0
4340
3C40
ENDCHAR
STARTCHAR atilde
ENCODING 139
SWIDTH 466 0
DWIDTH 14 0
BBX 10 20 2 0
BITMAP
2080
1100
0A00
0400
0000
0000
1F00
2080
4040
4000
8000
8000
8000
8000
8000
8000
4000
4040
2080
1F00
ENDCHAR
STARTCHAR aring
ENCODING 140
SWIDTH 533 0
DWIDTH 16 0
BBX 12 24 2 0
BITMAP
0080
0100
0200
0400
0000
0000
0FC0
3020
4010
4000
8000
8000
8000
8000
8000
8000
8000
8000
8000
8000
4000
4010
3020
0FC0
ENDCHAR
STARTCHAR ccedilla
ENCODING 141
SWIDTH 466 0
DWIDTH 14 0
BBX 10 20 2 0
BITMAP
0100
0200
0400
0800
0000
0000
1F00
2080
4040
4000
8000
8000
8000
8000
8000
8000
4000
4040
2080
1F00
ENDCHAR
STARTCHAR eacute
ENCODING 142
SWIDTH 466 0
DWIDTH 14 0
BBX 10 20 2 0
BITMAP
0200
0400
0800
1000
0000
0000
1E00
2100
4080
4080
8040
8040
FFC0
8000
8000
8000
4000
4080
2100
1E00
ENDCHAR
STARTCHAR egrave
ENCODING 143
SWIDTH 466 0
DWIDTH 14 0
BBX 10 24 2 0
BITMAP
0200
0400
0800
1000
0000
0000
FFC0
0040
0080
0080
0100
0200
0200
0400
0400
0800
0800
1000
2000
2000
4000
4000
8000
FFC0
ENDCHAR
STARTCHAR ecircumflex
ENCODING 144
SWIDTH 466 0
DWIDTH 14 0
BBX 10 20 2 0
BITMAP
0200
0400
0800
1000
0000
0000
FFC0
0040
0080
0100
0200
0200
0400
0800
1000
1000
2000
4000
8000
FFC0
ENDCHAR
STARTCHAR edieresis
ENCODING 145
SWIDTH 533 0
DWIDTH 16 0
BBX 12 24 2 0
BITMAP
4100
2200
1400
0800
0000
0000
FE00
8180
8040
8020
8020
8010
8010
8010
8010
8010
8010
8010
8010
8020
8020
8040
8180
FE00
ENDCHAR
STARTCHAR iacute
ENCODING 146
SWIDTH 333 0
DWIDTH 10 0
BBX 5 20 3 0
BITMAP
08
10
20
40
00
00
E0
20
20
20
20
20
20
20
20
20
20
20
20
20
ENDCHAR
STARTCHAR igrave
ENCODING 147
SWIDTH 500 0
DWIDTH 15 0
BBX 14 21 2 0
BITMAP
000C
0004
0004
0044
0048
0050
0040
1E40
2140
40C0
4040
8040
8040
8040
8040
8040
8040
4040
40C0
2140
1E40
ENDCHAR
STARTCHAR icircumflex
ENCODING 148
SWIDTH 466 0
DWIDTH 14 0
BBX 10 22 2 0
BITMAP
FFC0
0000
0000
0000
FFC0
8000
8000
8000
8000
8000
8000
8000
FF00
8000
8000
8000
8000
8000
8000
8000
8000
FFC0
ENDCHAR
STARTCHAR idieresis
ENCODING 149
SWIDTH 466 0
DWIDTH 14 0
BBX 10 18 2 0
BITMAP
FFC0
0000
0000
0000
1E00
2100
4080
4080
8040
8040
FFC0
8000
8000
8000
4000
4080
2100
1E00
ENDCHAR
STARTCHAR ntilde
ENCODING 150
SWIDTH 466 0
DWIDTH 14 0
BBX 10 22 2 0
BITMAP
0C00
0C00
0000
0000
FFC0
8000
8000
8000
8000
8000
8000
8000
FF00
8000
8000
8000
8000
8000
8000
8000
8000
FFC0
ENDCHAR
STARTCHAR oacute
ENCODING 151
SWIDTH 466 0
DWIDTH 14 0
BBX 10 20 2 0
BITMAP
0200
0400
0800
1000
0000
0000
1E00
2100
4080
4080
8040
8040
8040
8040
8040
8040
4080
4080
2100
1E00
ENDCHAR
STARTCHAR ograve
ENCODING 152
SWIDTH 466 0
DWIDTH 14 0
BBX 10 18 2 0
BITMAP
0C00
0C00
0000
0000
1E00
2100
4080
4080
8040
8040
FFC0
8000
8000
8000
4000
4080
2100
1E00
ENDCHAR
STARTCHAR ocircumflex
ENCODING 153
SWIDTH 466 0
DWIDTH 14 0
BBX 10 20 2 0
BITMAP
0C00
1200
2100
4080
0000
0000
1E00
2100
4080
4080
8040
8040
8040
8040
8040
8040
4080
4080
2100
1E00
ENDCHAR
STARTCHAR odieresis
ENCODING 154
SWIDTH 466 0
DWIDTH 14 0
BBX 10 19 2 0
BITMAP
2100
2100
2100
0000
0000
1E00
2100
4080
4080
8040
8040
8040
8040
8040
8040
4080
4080
2100
1E00
ENDCHAR
STARTCHAR otilde
ENCODING 155
SWIDTH 466 0
DWIDTH 14 0
BBX 10 19 2 0
BITMAP
1840
2480
4300
0000
0000
1E00
2100
4080
4080
8040
8040
8040
8040
8040
8040
4080
4080
2100
1E00
ENDCHAR
STARTCHAR uacute
ENCODING 156
SWIDTH 466 0
DWIDTH 14 0
BBX 10 20 2 0
BITMAP
0100
0200
0400
0800
0000
0000
8040
8040
8040
8040
8040
8040
8040
8040
8040
8040
4040
40C0
2140
1E40
ENDCHAR
STARTCHAR ugrave
ENCODING 157
SWIDTH 466 0
DWIDTH 14 0
BBX 10 24 2 0
BITMAP
4100
2200
1400
0800
0000
0000
FFC0
8000
8000
8000
8000
8000
8000
8000
FF00
8000
8000
8000
8000
8000
8000
8000
8000
FFC0
ENDCHAR
STARTCHAR ucircumflex
ENCODING 158
SWIDTH 466 0
DWIDTH 14 0
BBX 10 20 2 0
BITMAP
4100
2200
1400
0800
0000
0000
1E00
2100
4080
4080
8040
8040
FFC0
8000
8000
8000
4000
4080
2100
1E00
ENDCHAR
STARTCHAR udieresis
ENCODING 159
SWIDTH 466 0
DWIDTH 14 0
BBX 10 19 2 0
BITMAP
2100
2100
2100
0000
0000
8040
8040
8040
8040
8040
8040
8040
8040
8040
8040
4040
40C0
2140
1E40
ENDCHAR
STARTCHAR dagger
ENCODING 160
SWIDTH 333 0
DWIDTH 10 0
BBX 5 9 2 11
BITMAP
20
20
F8
20
20
20
20
20
20
ENDCHAR
STARTCHAR degree
ENCODING 161
SWIDTH 400 0
DWIDTH 12 0
BBX 5 5 3 13
BITMAP
70
88
88
88
70
ENDCHAR
STARTCHAR cent
ENCODING 162
SWIDTH 466 0
DWIDTH 14 0
BBX 10 23 2 -5
BITMAP
FFC0
8000
8000
8000
8000
8000
8000
8000
FF00
8000
8000
8000
8000
8000
8000
8000
8000
FFC0
0100
0200
0400
0400
0300
ENDCHAR
STARTCHAR sterling
ENCODING 163
SWIDTH 533 0
DWIDTH 16 0
BBX 12 18 2 0
BITMAP
0F00
1080
2000
2000
2000
2000
2000
2000
FC00
2000
2000
2000
2000
2000
2010
2010
2020
FFC0
ENDCHAR
STARTCHAR section
ENCODING 164
SWIDTH 533 0
DWIDTH 16 0
BBX 10 18 3 0
BITMAP
3F00
4080
8040
8040
8000
6000
9800
8600
8180
6040
1840
0640
0180
0040
8040
8040
4080
3F00
ENDCHAR
STARTCHAR bullet
ENCODING 165
SWIDTH 533 0
DWIDTH 16 0
BBX 12 12 2 2
BITMAP
0F00
3FC0
7FE0
7FE0
FFF0
FFF0
FFF0
FFF0
7FE0
7FE0
3FC0
0F00
ENDCHAR
STARTCHAR paragraph
ENCODING 166
SWIDTH 533 0
DWIDTH 16 0
BBX 12 18 2 0
BITMAP
0FF0
3120
4120
4120
8120
8120
8120
8120
4120
4120
3120
0F20
0120
0120
0120
0120
0120
0120
ENDCHAR
STARTCHAR germandbls
ENCODING 167
SWIDTH 600 0
DWIDTH 18 0
BBX 13 18 2 0
BITMAP
0FC0
1020
2010
2010
2010
2010
2020
20C0
2020
2010
2008
2008
2008
2008
2008
2010
2060
C380
ENDCHAR
STARTCHAR registered
ENCODING 168
SWIDTH 666 0
DWIDTH 20 0
BBX 15 15 2 0
BITMAP
0FE0
3018
600C
4004
8782
8442
8442
8782
8502
8482
8442
4004
600C
3018
0FE0
ENDCHAR
STARTCHAR copyright
ENCODING 169
SWIDTH 666 0
DWIDTH 20 0
BBX 15 15 2 0
BITMAP
0FE0
3018
600C
4004
8382
8442
8402
8402
8402
8442
8382
4004
600C
3018
0FE0
ENDCHAR
STARTCHAR trademark
ENCODING 170
SWIDTH 733 0
DWIDTH 22 0
BBX 14 7 2 11
BITMAP
F904
218C
2154
2124
2104
2104
2104
ENDCHAR
STARTCHAR acute
ENCODING 171
SWIDTH 466 0
DWIDTH 14 0
BBX 10 19 2 -5
BITMAP
1E00
2100
4080
4080
8040
8040
FFC0
8000
8000
8000
4000
4080
2100
1E00
0400
0800
1000
1000
0C00
ENDCHAR
STARTCHAR dieresis
ENCODING 172
SWIDTH 400 0
DWIDTH 12 0
BBX 7 3 2 20
BITMAP
82
82
82
ENDCHAR
STARTCHAR notequal
ENCODING 173
SWIDTH 533 0
DWIDTH 16 0
BBX 13 9 1 5
BITMAP
0020
0040
FFF8
0100
0200
0400
FFF8
1000
2000
ENDCHAR
STARTCHAR AE
ENCODING 174
SWIDTH 466 0
DWIDTH 14 0
BBX 10 26 2 -6
BITMAP
0200
0400
0800
0C00
0000
0000
1E40
2140
40C0
4040
8040
8040
8040
8040
8040
8040
4040
40C0
2140
1E40
0040
0040
0040
4080
2100
1E00
ENDCHAR
STARTCHAR Oslash
ENCODING 175
SWIDTH 333 0
DWIDTH 10 0
BBX 3 22 3 -4
BITMAP
40
40
40
40
40
40
40
40
40
40
40
40
40
40
40
40
40
40
40
60
80
60
ENDCHAR
STARTCHAR infinity
ENCODING 176
SWIDTH 333 0
DWIDTH 10 0
BBX 4 22 3 -4
BITMAP
20
20
00
00
E0
20
20
20
20
20
20
20
20
20
20
20
20
20
20
30
40
30
ENDCHAR
STARTCHAR plusminus
ENCODING 177
SWIDTH 333 0
DWIDTH 10 0
BBX 7 22 1 0
BITMAP
FE
00
00
00
10
10
10
10
10
10
10
10
10
10
10
10
10
10
10
10
10
10
ENDCHAR
STARTCHAR lessequal
ENCODING 178
SWIDTH 400 0
DWIDTH 12 0
BBX 8 15 2 0
BITMAP
02
04
08
10
20
40
80
40
20
10
08
04
02
00
FF
ENDCHAR
STARTCHAR greaterequal
ENCODING 179
SWIDTH 400 0
DWIDTH 12 0
BBX 8 15 2 0
BITMAP
40
20
10
08
04
02
01
02
04
08
10
20
40
00
FF
ENDCHAR
STARTCHAR yen
ENCODING 180
SWIDTH 333 0
DWIDTH 10 0
BBX 7 18 2 0
BITMAP
FE
00
00
00
70
10
10
10
10
10
10
10
10
10
10
10
10
10
ENDCHAR
STARTCHAR mu
ENCODING 181
SWIDTH 533 0
DWIDTH 16 0
BBX 13 23 2 -5
BITMAP
8010
8020
8040
8080
8100
8200
8400
8800
9000
A800
C400
8200
8100
8080
8040
8020
8010
8008
0000
0600
0200
0400
0800
ENDCHAR
STARTCHAR partialdiff
ENCODING 182
SWIDTH 466 0
DWIDTH 14 0
BBX 9 17 3 0
BITMAP
1800
0400
0200
0100
0100
0080
0E80
3180
4080
4080
8080
8080
8080
8100
8100
4600
3800
ENDCHAR
STARTCHAR summation
ENCODING 183
SWIDTH 533 0
DWIDTH 16 0
BBX 12 18 2 0
BITMAP
FFF0
4010
2010
1000
0800
0400
0200
0100
0080
0080
0100
0200
0400
0800
1000
2010
4010
FFF0
ENDCHAR
STARTCHAR product
ENCODING 184
SWIDTH 333 0
DWIDTH 10 0
BBX 7 18 2 0
BITMAP
70
10
10
16
18
30
D0
10
10
10
10
10
10
10
10
10
10
10
ENDCHAR
STARTCHAR pi
ENCODING 185
SWIDTH 466 0
DWIDTH 14 0
BBX 10 23 2 -5
BITMAP
8000
8000
8000
8000
8000
8000
8000
8000
8000
8000
8000
8000
8000
8000
8000
8000
8000
FFC0
0000
0C00
0400
0800
1000
ENDCHAR
STARTCHAR integral
ENCODING 186
SWIDTH 333 0
DWIDTH 10 0
BBX 4 23 3 -5
BITMAP
E0
20
20
20
20
20
20
20
20
20
20
20
20
20
20
20
20
20
00
30
10
20
40
ENDCHAR
STARTCHAR ordfeminine
ENCODING 187
SWIDTH 466 0
DWIDTH 14 0
BBX 10 20 2 0
BITMAP
0300
0100
8100
8100
8200
8400
8000
8000
8000
8000
8000
8000
8000
8000
8000
8000
8000
8000
8000
FFC0
ENDCHAR
STARTCHAR ordmasculine
ENCODING 188
SWIDTH 333 0
DWIDTH 10 0
BBX 7 20 3 0
BITMAP
06
02
E2
22
24
28
20
20
20
20
20
20
20
20
20
20
20
20
20
20
ENDCHAR
STARTCHAR Omega
ENCODING 189
SWIDTH 466 0
DWIDTH 14 0
BBX 10 24 2 0
BITMAP
1000
2000
4000
8000
0000
0000
8000
8000
8000
8000
8000
8000
8000
8000
8000
8000
8000
8000
8000
8000
8000
8000
8000
FFC0
ENDCHAR
STARTCHAR ae
ENCODING 190
SWIDTH 333 0
DWIDTH 10 0
BBX 5 24 3 0
BITMAP
08
10
20
40
00
00
E0
20
20
20
20
20
20
20
20
20
20
20
20
20
20
20
20
20
ENDCHAR
STARTCHAR oslash
ENCODING 191
SWIDTH 533 0
DWIDTH 16 0
BBX 12 23 2 -5
BITMAP
8010
C010
C010
A010
A010
9010
8810
8810
8410
8210
8210
8110
8090
8090
8050
8030
8030
8010
0000
0600
0200
0400
0800
ENDCHAR
STARTCHAR questiondown
ENCODING 192
SWIDTH 466 0
DWIDTH 14 0
BBX 10 19 2 -5
BITMAP
9E00
A100
C080
8080
8040
8040
8040
8040
8040
8040
8040
8040
8040
8040
0000
0C00
0400
0800
1000
ENDCHAR
STARTCHAR exclamdown
ENCODING 193
SWIDTH 533 0
DWIDTH 16 0
BBX 12 24 2 0
BITMAP
0080
0100
0200
0400
0000
0000
8010
C010
C010
A010
A010
9010
8810
8810
8410
8210
8210
8110
8090
8090
8050
8030
8030
8010
ENDCHAR
STARTCHAR logicalnot
ENCODING 194
SWIDTH 466 0
DWIDTH 14 0
BBX 10 5 2 5
BITMAP
FFC0
0040
0040
0040
0040
ENDCHAR
STARTCHAR radical
ENCODING 195
SWIDTH 666 0
DWIDTH 20 0
BBX 16 21 2 0
BITMAP
000F
0008
0008
0010
0010
0010
0020
0020
0020
0040
0040
0040
3080
5080
8880
0900
0500
0500
0200
0200
0200
ENDCHAR
STARTCHAR florin
ENCODING 196
SWIDTH 466 0
DWIDTH 14 0
BBX 10 20 2 0
BITMAP
0200
0400
0800
1000
0000
0000
9E00
A100
C080
8080
8040
8040
8040
8040
8040
8040
8040
8040
8040
8040
ENDCHAR
STARTCHAR approxequal
ENCODING 197
SWIDTH 533 0
DWIDTH 16 0
BBX 12 24 2 0
BITMAP
2080
1100
0A00
0400
0000
0000
8010
C010
C010
A010
A010
9010
8810
8810
8410
8210
8210
8110
8090
8090
8050
8030
8030
8010
ENDCHAR
STARTCHAR Delta
ENCODING 198
SWIDTH 600 0
DWIDTH 18 0
BBX 15 15 1 0
BITMAP
0100
0100
0280
0280
0440
0440
0820
0820
1010
1010
2008
2008
4004
4004
FFFE
ENDCHAR
STARTCHAR guillemotleft
ENCODING 199
SWIDTH 533 0
DWIDTH 16 0
BBX 12 13 1 0
BITMAP
0210
0420
0840
1080
2100
4200
8400
4200
2100
1080
0840
0420
0210
ENDCHAR
STARTCHAR guillemotright
ENCODING 200
SWIDTH 533 0
DWIDTH 16 0
BBX 12 13 3 0
BITMAP
8400
4200
2100
1080
0840
0420
0210
0420
0840
1080
2100
4200
8400
ENDCHAR
STARTCHAR ellipsis
ENCODING 201
SWIDTH 666 0
DWIDTH 20 0
BBX 15 2 2 0
BITMAP
8102
8102
ENDCHAR
STARTCHAR nbspace
ENCODING 202
SWIDTH 533 0
DWIDTH 16 0
BBX 0 0 -1 -6
BITMAP
ENDCHAR
STARTCHAR Agrave
ENCODING 203
SWIDTH 466 0
DWIDTH 14 0
BBX 10 20 2 0
BITMAP
4100
2200
1400
0800
0000
0000
9E00
A100
C080
8080
8040
8040
8040
8040
8040
8040
8040
8040
8040
8040
ENDCHAR
STARTCHAR Atilde
ENCODING 204
SWIDTH 533 0
DWIDTH 16 0
BBX 13 24 1 0
BITMAP
0408
0810
1020
2040
0000
0000
0700
18C0
2020
4010
4010
8008
8008
8008
8008
8008
8008
8008
8008
4010
4010
2020
18C0
0700
ENDCHAR
STARTCHAR Otilde
ENCODING 205
SWIDTH 533 0
DWIDTH 16 0
BBX 13 23 1 0
BITMAP
1C10
2220
41C0
0000
0000
0700
18C0
2020
4010
4010
8008
8008
8008
8008
8008
8008
8008
8008
4010
4010
2020
18C0
0700
ENDCHAR
STARTCHAR OE
ENCODING 206
SWIDTH 466 0
DWIDTH 14 0
BBX 11 20 2 0
BITMAP
0420
0840
1080
2100
0000
0000
1E00
2100
4080
4080
8040
8040
8040
8040
8040
8040
4080
4080
2100
1E00
ENDCHAR
STARTCHAR oe
ENCODING 207
SWIDTH 533 0
DWIDTH 16 0
BBX 13 22 1 0
BITMAP
7FF0
0000
0000
0000
0700
18C0
2020
4010
4010
8008
8008
8008
8008
8008
8008
8008
8008
4010
4010
2020
18C0
0700
ENDCHAR
STARTCHAR endash
ENCODING 208
SWIDTH 400 0
DWIDTH 12 0
BBX 8 1 2 7
BITMAP
FF
ENDCHAR
STARTCHAR emdash
ENCODING 209
SWIDTH 600 0
DWIDTH 18 0
BBX 18 1 0 7
BITMAP
FFFFC0
ENDCHAR
STARTCHAR quotedblleft
ENCODING 210
SWIDTH 466 0
DWIDTH 14 0
BBX 6 5 3 13
BITMAP
44
88
88
88
CC
ENDCHAR
STARTCHAR quotedblright
ENCODING 211
SWIDTH 466 0
DWIDTH 14 0
BBX 6 5 5 13
BITMAP
CC
44
44
44
88
ENDCHAR
STARTCHAR quoteleft
ENCODING 212
SWIDTH 266 0
DWIDTH 8 0
BBX 2 5 3 13
BITMAP
40
80
80
80
C0
ENDCHAR
STARTCHAR quoteright
ENCODING 213
SWIDTH 266 0
DWIDTH 8 0
BBX 2 5 3 13
BITMAP
C0
40
40
40
80
ENDCHAR
STARTCHAR divide
ENCODING 214
SWIDTH 466 0
DWIDTH 14 0
BBX 11 9 1 5
BITMAP
0400
0400
0000
0000
FFE0
0000
0000
0400
0400
ENDCHAR
STARTCHAR lozenge
ENCODING 215
SWIDTH 600 0
DWIDTH 18 0
BBX 14 14 2 1
BITMAP
0300
0480
0840
1020
2010
4008
8004
8004
4008
2010
1020
0840
0480
0300
ENDCHAR
STARTCHAR ydieresis
ENCODING 216
SWIDTH 466 0
DWIDTH 14 0
BBX 10 18 2 0
BITMAP
7F80
0000
0000
0000
1E00
2100
4080
4080
8040
8040
8040
8040
8040
8040
4080
4080
2100
1E00
ENDCHAR
STARTCHAR Ydieresis
ENCODING 217
SWIDTH 533 0
DWIDTH 16 0
BBX 12 24 2 0
BITMAP
0100
0200
0400
0800
0000
0000
FF00
80C0
8020
8020
8010
8010
8010
8020
8020
80C0
FF80
8080
8040
8040
8020
8020
8010
8010
ENDCHAR
STARTCHAR fraction
ENCODING 218
SWIDTH 400 0
DWIDTH 12 0
BBX 9 20 2 0
BITMAP
0200
0400
0800
1000
0000
0000
9E00
A100
C080
8000
8000
8000
8000
8000
8000
8000
8000
8000
8000
8000
ENDCHAR
STARTCHAR currency
ENCODING 219
SWIDTH 533 0
DWIDTH 16 0
BBX 12 24 2 0
BITMAP
4100
2200
1400
0800
0000
0000
FF00
80C0
8020
8020
8010
8010
8010
8020
8020
80C0
FF80
8080
8040
8040
8020
8020
8010
8010
ENDCHAR
STARTCHAR guilsinglleft
ENCODING 220
SWIDTH 466 0
DWIDTH 14 0
BBX 10 19 2 0
BITMAP
0040
0080
0100
0200
0400
0800
1000
2000
4000
8000
4000
2000
1000
0800
0400
0200
0100
0080
0040
ENDCHAR
STARTCHAR guilsinglright
ENCODING 221
SWIDTH 466 0
DWIDTH 14 0
BBX 10 19 2 0
BITMAP
8000
4000
2000
1000
0800
0400
0200
0100
0080
0040
0080
0100
0200
0400
0800
1000
2000
4000
8000
ENDCHAR
STARTCHAR fi
ENCODING 222
SWIDTH 400 0
DWIDTH 12 0
BBX 9 20 2 0
BITMAP
8200
4400
2800
1000
0000
0000
9E00
A100
C080
8000
8000
8000
8000
8000
8000
8000
8000
8000
8000
8000
ENDCHAR
STARTCHAR fl
ENCODING 223
SWIDTH 533 0
DWIDTH 16 0
BBX 12 23 2 -5
BITMAP
FF00
80C0
8020
8020
8010
8010
8010
8020
8020
80C0
FF80
8080
8040
8040
8020
8020
8010
8010
0000
0C00
0400
0800
1000
ENDCHAR
STARTCHAR daggerdbl
ENCODING 224
SWIDTH 400 0
DWIDTH 12 0
BBX 9 19 2 -5
BITMAP
9E00
A100
C080
8000
8000
8000
8000
8000
8000
8000
8000
8000
8000
8000
0000
1800
0800
1000
2000
ENDCHAR
STARTCHAR periodcentered
ENCODING 225
SWIDTH 533 0
DWIDTH 16 0
BBX 12 24 2 0
BITMAP
2080
1100
0A00
0400
0000
0000
3F80
4040
8020
8000
8000
8000
6000
1F00
00C0
0020
0020
0010
0010
0010
8020
8020
60C0
1F00
ENDCHAR
STARTCHAR quotesinglbase
ENCODING 226
SWIDTH 266 0
DWIDTH 8 0
BBX 2 5 3 -3
BITMAP
C0
40
40
40
80
ENDCHAR
STARTCHAR quotedblbase
ENCODING 227
SWIDTH 466 0
DWIDTH 14 0
BBX 6 5 5 -3
BITMAP
CC
44
44
44
88
ENDCHAR
STARTCHAR perthousand
ENCODING 228
SWIDTH 466 0
DWIDTH 14 0
BBX 10 20 2 0
BITMAP
4100
2200
1400
0800
0000
0000
3F00
4080
8040
8000
8000
4000
3F00
0080
0040
0040
0040
8040
4080
3F00
ENDCHAR
STARTCHAR Acircumflex
ENCODING 229
SWIDTH 533 0
DWIDTH 16 0
BBX 12 24 2 0
BITMAP
0100
0200
0400
0800
0000
0000
3F80
4040
8020
8000
8000
8000
6000
1F00
00C0
0020
0020
0010
0010
0010
8020
8020
60C0
1F00
ENDCHAR
STARTCHAR Ecircumflex
ENCODING 230
SWIDTH 466 0
DWIDTH 14 0
BBX 10 20 2 0
BITMAP
0200
0400
0800
1000
0000
0000
3F00
4080
8040
8000
8000
4000
3F00
0080
0040
0040
0040
8040
4080
3F00
ENDCHAR
STARTCHAR Aacute
ENCODING 231
SWIDTH 600 0
DWIDTH 18 0
BBX 15 24 2 0
BITMAP
0040
0080
0100
0200
0000
0000
0100
0100
0100
0280
0280
0440
0440
0820
0820
1010
1010
3FF8
2008
2008
4004
4004
8002
8002
ENDCHAR
STARTCHAR Edieresis
ENCODING 232
SWIDTH 533 0
DWIDTH 16 0
BBX 13 24 1 0
BITMAP
1040
0880
0500
0200
0000
0000
FFF8
0200
0200
0200
0200
0200
0200
0200
0200
0200
0200
0200
0200
0200
0200
0200
0200
0200
ENDCHAR
STARTCHAR Egrave
ENCODING 233
SWIDTH 400 0
DWIDTH 12 0
BBX 8 22 2 0
BITMAP
03
01
01
01
22
24
20
20
FE
20
20
20
20
20
20
20
20
20
20
20
11
0E
ENDCHAR
STARTCHAR Iacute
ENCODING 234
SWIDTH 333 0
DWIDTH 10 0
BBX 4 24 4 0
BITMAP
10
20
40
80
00
00
80
80
80
80
80
80
80
80
80
80
80
80
80
80
80
80
80
80
ENDCHAR
STARTCHAR Icircumflex
ENCODING 235
SWIDTH 466 0
DWIDTH 14 0
BBX 10 24 2 0
BITMAP
4100
2200
1400
0800
0000
0000
FFC0
0040
0080
0080
0100
0200
0200
0400
0400
0800
0800
1000
2000
2000
4000
4000
8000
FFC0
ENDCHAR
STARTCHAR Idieresis
ENCODING 236
SWIDTH 466 0
DWIDTH 14 0
BBX 10 20 2 0
BITMAP
4100
2200
1400
0800
0000
0000
FFC0
0040
0080
0100
0200
0200
0400
0800
1000
1000
2000
4000
8000
FFC0
ENDCHAR
STARTCHAR Igrave
ENCODING 237
SWIDTH 533 0
DWIDTH 16 0
BBX 12 22 2 0
BITMAP
7FE0
0000
0000
0000
8010
8010
8010
8010
8010
8010
8010
8010
8010
8010
8010
8010
8010
8010
4020
4020
30C0
0F00
ENDCHAR
STARTCHAR Oacute
ENCODING 238
SWIDTH 533 0
DWIDTH 16 0
BBX 13 24 1 0
BITMAP
0080
0100
0200
0400
0000
0000
0700
18C0
2020
4010
4010
8008
8008
8008
8008
8008
8008
8008
8008
4010
4010
2020
18C0
0700
ENDCHAR
STARTCHAR Ocircumflex
ENCODING 239
SWIDTH 533 0
DWIDTH 16 0
BBX 13 24 1 0
BITMAP
0200
0500
0880
1040
0000
0000
0700
18C0
2020
4010
4010
8008
8008
8008
8008
8008
8008
8008
8008
4010
4010
2020
18C0
0700
ENDCHAR
STARTCHAR apple
ENCODING 240
SWIDTH 466 0
DWIDTH 14 0
BBX 10 18 2 0
BITMAP
7F80
0000
0000
0000
8040
8040
8040
8040
8040
8040
8040
8040
8040
8040
4040
40C0
2140
1E40
ENDCHAR
STARTCHAR Ograve
ENCODING 241
SWIDTH 533 0
DWIDTH 16 0
BBX 12 24 2 0
BITMAP
0600
0900
1080
1080
0900
0600
8010
8010
8010
8010
8010
8010
8010
8010
8010
8010
8010
8010
8010
8010
4020
4020
30C0
0F00
ENDCHAR
STARTCHAR Uacute
ENCODING 242
SWIDTH 533 0
DWIDTH 16 0
BBX 12 24 2 0
BITMAP
0080
0100
0200
0400
0000
0000
8010
8010
8010
8010
8010
8010
8010
8010
8010
8010
8010
8010
8010
8010
4020
4020
30C0
0F00
ENDCHAR
STARTCHAR Ucircumflex
ENCODING 243
SWIDTH 466 0
DWIDTH 14 0
BBX 10 20 2 0
BITMAP
0C00
1200
1200
0C00
0000
0000
8040
8040
8040
8040
8040
8040
8040
8040
8040
8040
4040
40C0
2140
1E40
ENDCHAR
STARTCHAR Ugrave
ENCODING 244
SWIDTH 533 0
DWIDTH 16 0
BBX 12 24 2 0
BITMAP
0410
0820
1040
2080
0000
0000
8010
8010
8010
8010
8010
8010
8010
8010
8010
8010
8010
8010
8010
8010
4020
4020
30C0
0F00
ENDCHAR
STARTCHAR dotlessi
ENCODING 245
SWIDTH 466 0
DWIDTH 14 0
BBX 11 20 2 0
BITMAP
0420
0840
1080
2100
0000
0000
8040
8040
8040
8040
8040
8040
8040
8040
8040
8040
4040
40C0
2140
1E40
ENDCHAR
STARTCHAR circumflex
ENCODING 246
SWIDTH 533 0
DWIDTH 16 0
BBX 12 22 2 -4
BITMAP
8010
8010
8010
8010
8010
8010
8010
8010
8010
8010
8010
8010
8010
8010
4020
4020
30C0
0F00
0200
0300
0400
0300
ENDCHAR
STARTCHAR tilde
ENCODING 247
SWIDTH 466 0
DWIDTH 14 0
BBX 10 18 2 -4
BITMAP
8040
8040
8040
8040
8040
8040
8040
8040
8040
8040
4040
40C0
2140
1E40
0400
0600
0800
0600
ENDCHAR
STARTCHAR macron
ENCODING 248
SWIDTH 466 0
DWIDTH 14 0
BBX 11 24 1 0
BITMAP
0100
0200
0400
0800
0000
0000
8020
8020
4040
4040
2080
2080
1100
1100
0A00
0A00
0400
0400
0400
0400
0400
0400
0400
0400
ENDCHAR
STARTCHAR breve
ENCODING 249
SWIDTH 466 0
DWIDTH 14 0
BBX 11 26 1 -6
BITMAP
0100
0200
0400
0800
0000
0000
8020
8020
4040
4040
4040
2080
2080
1100
1100
1100
0A00
0A00
0400
0400
0800
0800
1000
1000
2000
2000
ENDCHAR
STARTCHAR dotaccent
ENCODING 250
SWIDTH 466 0
DWIDTH 14 0
BBX 10 23 2 -5
BITMAP
8000
8000
8000
8000
8080
8100
8200
8400
8800
9000
E000
9000
8800
8400
8200
8100
8080
8040
0000
0C00
0400
0800
1000
ENDCHAR
STARTCHAR ring
ENCODING 251
SWIDTH 466 0
DWIDTH 14 0
BBX 10 22 2 0
BITMAP
0C00
0C00
0000
0000
FFC0
0040
0080
0080
0100
0200
0200
0400
0400
0800
0800
1000
2000
2000
4000
4000
8000
FFC0
ENDCHAR
STARTCHAR cedilla
ENCODING 252
SWIDTH 466 0
DWIDTH 14 0
BBX 13 18 -1 0
BITMAP
1000
1000
1000
1000
1000
1000
1000
1600
1800
3000
D000
1000
1000
1000
1000
1000
1000
1FF8
ENDCHAR
STARTCHAR hungarumlaut
ENCODING 253
SWIDTH 466 0
DWIDTH 14 0
BBX 10 18 2 0
BITMAP
0C00
0C00
0000
0000
FFC0
0040
0080
0100
0200
0200
0400
0800
1000
1000
2000
4000
8000
FFC0
ENDCHAR
STARTCHAR ogonek
ENCODING 254
SWIDTH 533 0
DWIDTH 16 0
BBX 12 23 2 -5
BITMAP
0F80
3040
4020
4000
8000
8000
8000
8000
83F0
8010
8010
8010
8010
8010
4020
4020
30C0
0F00
0000
0600
0200
0400
0800
ENDCHAR
STARTCHAR caron
ENCODING 255
SWIDTH 400 0
DWIDTH 12 0
BBX 7 4 2 20
BITMAP
82
44
28
10
ENDCHAR
ENDFONT
